<?xml version="1.0" encoding="utf-8"?>
<svg width="266px" height="73px" viewBox="0 0 266 73" version="1.1" xmlns:xlink="http://www.w3.org/1999/xlink" xmlns="http://www.w3.org/2000/svg">
  <defs>
    <path d="M1.69277e-05 2.56566e-15L266 2.56566e-15L266 73L1.69277e-05 73L1.69277e-05 2.56566e-15Z" id="path_1" />
    <rect width="266" height="73" id="artboard_1" />
    <clipPath id="clip_1">
      <use xlink:href="#artboard_1" clip-rule="evenodd" />
    </clipPath>
    <clipPath id="mask_1">
      <use xlink:href="#path_1" />
    </clipPath>
  </defs>
  <g id="Artboard-2-Copy" clip-path="url(#clip_1)">
    <use xlink:href="#artboard_1" stroke="none" fill="#FFFFFF" fill-opacity="0" />
    <g id="logo" artboard="bc118105-86a0-4a4a-a423-e24a99ff6d3a">
      <path d="M1.69277e-05 2.56566e-15L266 2.56566e-15L266 73L1.69277e-05 73L1.69277e-05 2.56566e-15Z" id="Background" fill="#FFFFFF" fill-opacity="0" fill-rule="evenodd" stroke="none" />
      <g clip-path="url(#mask_1)">
        <path d="M172.572 43.1369C174.303 43.4885 175.683 44.3136 176.711 45.612C177.766 46.8834 178.293 48.3848 178.293 50.1161C178.293 52.5236 177.482 54.4306 175.859 55.8372C174.263 57.2169 171.936 57.9066 168.88 57.9066L156.585 57.9066L156.585 29.2598L168.636 29.2598C171.531 29.2598 173.749 29.8955 175.291 31.1669C176.86 32.4383 177.644 34.2236 177.644 36.5229C177.644 38.3083 177.171 39.7691 176.224 40.9052C175.304 42.0413 174.087 42.7852 172.572 43.1369L172.572 43.1369ZM162.306 41.2704L167.459 41.2704C168.893 41.2704 169.975 40.9594 170.706 40.3372C171.463 39.688 171.842 38.7682 171.842 37.5779C171.842 36.3877 171.476 35.468 170.746 34.8187C170.016 34.1695 168.893 33.8449 167.378 33.8449L162.306 33.8449L162.306 41.2704L162.306 41.2704ZM167.743 53.2404C169.258 53.2404 170.421 52.9158 171.233 52.2665C172.045 51.5903 172.45 50.6164 172.45 49.345C172.45 48.0737 172.031 47.0998 171.192 46.4236C170.381 45.7202 169.218 45.3686 167.703 45.3686L162.306 45.3686L162.306 53.2404L167.743 53.2404L167.743 53.2404ZM191.107 35.1433C193 35.1433 194.623 35.5898 195.976 36.4824C197.329 37.375 198.289 38.5788 198.857 40.0938L198.857 35.4275L204.538 35.4275L204.538 57.9066L198.857 57.9066L198.857 53.1999C198.289 54.7146 197.329 55.9319 195.976 56.8517C194.623 57.7443 193 58.1908 191.107 58.1908C189.213 58.1908 187.509 57.7309 185.994 56.8111C184.479 55.8914 183.289 54.5659 182.423 52.8346C181.585 51.0764 181.166 49.0204 181.166 46.667C181.166 44.3137 181.585 42.2712 182.423 40.54C183.289 38.7817 184.479 37.4427 185.994 36.5229C187.509 35.6032 189.213 35.1433 191.107 35.1433L191.107 35.1433ZM192.892 40.1342C191.107 40.1342 189.673 40.7159 188.591 41.8791C187.509 43.0423 186.968 44.6383 186.968 46.667C186.968 48.6958 187.509 50.2918 188.591 51.455C189.673 52.5911 191.107 53.1592 192.892 53.1592C194.623 53.1592 196.044 52.5777 197.153 51.4145C198.289 50.2243 198.857 48.6417 198.857 46.667C198.857 44.6652 198.289 43.0828 197.153 41.9196C196.044 40.7293 194.623 40.1342 192.892 40.1342L192.892 40.1342ZM223.113 35.1029C225.709 35.1029 227.779 35.9549 229.321 37.6591C230.863 39.3633 231.634 41.7573 231.634 44.8411L231.634 57.9066L225.953 57.9066L225.953 45.4903C225.953 43.7049 225.493 42.3253 224.573 41.3515C223.654 40.3506 222.396 39.8503 220.8 39.8503C219.177 39.8503 217.878 40.3777 216.904 41.4327C215.931 42.4877 215.444 44.0025 215.444 45.9772L215.444 57.9066L209.722 57.9066L209.722 35.4275L215.444 35.4275L215.444 39.9314C216.039 38.4165 217.013 37.2398 218.365 36.4012C219.745 35.5357 221.327 35.1029 223.113 35.1029L223.113 35.1029ZM249.814 57.9066L242.389 48.0872L242.389 57.9066L236.668 57.9066L236.668 27.8802L242.389 27.8802L242.389 44.7599L249.774 35.4274L256.55 35.4274L247.096 46.6264L256.793 57.9066L249.814 57.9066L249.814 57.9066Z" id="Shape" fill="#AA77FF" fill-rule="evenodd" stroke="none" />
        <path d="M36.0678 2.56566e-15C28.9343 -8.50666e-08 21.9609 2.11534 16.0296 6.07852C10.0983 10.0417 5.47541 15.6747 2.74552 22.2652C0.0156295 28.8558 -0.698634 36.1078 0.693048 43.1043C2.08473 50.1007 5.51986 56.5274 10.564 61.5716C15.6082 66.6157 22.0348 70.0509 29.0313 71.4426C36.0278 72.8342 43.2798 72.12 49.8703 69.3901C56.4609 66.6602 62.0939 62.0373 66.0571 56.106C70.0202 50.1747 72.1356 43.2013 72.1356 36.0678L54.1017 36.0678C54.1017 39.6346 53.044 43.1212 51.0624 46.0869C49.0808 49.0526 46.2643 51.364 42.9691 52.7289C39.6738 54.0939 36.0478 54.451 32.5496 53.7552C29.0513 53.0593 25.838 51.3418 23.3159 48.8197C20.7938 46.2976 19.0763 43.0843 18.3804 39.586C17.6846 36.0878 18.0417 32.4618 19.4066 29.1665C20.7716 25.8713 23.083 23.0547 26.0487 21.0732C29.0144 19.0916 32.501 18.0339 36.0678 18.0339L36.0678 2.56566e-15L36.0678 2.56566e-15Z" id="Shape" fill="#FFFFFF" fill-rule="evenodd" stroke="none" />
        <path d="M36.0678 5.13037e-15C31.3313 -5.64821e-08 26.6412 0.932921 22.2652 2.7455C17.8893 4.55807 13.9132 7.21481 10.564 10.564C7.21483 13.9132 4.55809 17.8893 2.74552 22.2653C0.932937 26.6412 1.62125e-05 31.3313 1.69277e-05 36.0678L18.0339 36.0678C18.0339 33.6996 18.5004 31.3545 19.4066 29.1665C20.3129 26.9785 21.6413 24.9905 23.3159 23.3159C24.9905 21.6413 26.9785 20.3129 29.1665 19.4066C31.3545 18.5004 33.6995 18.0339 36.0678 18.0339L36.0678 5.13037e-15L36.0678 5.13037e-15Z" id="Shape" fill="#AA77FF" fill-rule="evenodd" stroke="none" />
        <path d="M24.7966 36.0678C24.7966 29.8429 29.8429 24.7966 36.0678 24.7966C42.2927 24.7966 47.339 29.8429 47.339 36.0678C47.339 42.2927 42.2927 47.339 36.0678 47.339C29.8429 47.339 24.7966 42.2927 24.7966 36.0678Z" id="Circle" fill="#AA77FF" fill-rule="evenodd" stroke="none" />
        <path d="M47.339 36.0678C47.339 34.5877 47.0475 33.122 46.481 31.7545C45.9146 30.387 45.0844 29.1445 44.0377 28.0979C42.9911 27.0513 41.7486 26.221 40.3811 25.6546C39.0136 25.0882 37.548 24.7966 36.0678 24.7966C34.5876 24.7966 33.122 25.0882 31.7545 25.6546C30.387 26.221 29.1445 27.0513 28.0979 28.0979C27.0512 29.1445 26.221 30.387 25.6546 31.7545C25.0882 33.122 24.7966 34.5877 24.7966 36.0678L36.0678 36.0678L47.339 36.0678L47.339 36.0678Z" id="Shape" fill="#FFFFFF" fill-rule="evenodd" stroke="none" />
      </g>
    </g>
    <g id="0x5" transform="translate(82 7)" artboard="d67d15c1-6396-4b3b-9825-45c7ec58788e">
      <g id="0" fill="#FFFFFF">
        <path d="M1.52 36.46Q1.52 32.82 2.28 30.08Q3.04 27.34 4.42 25.54Q5.8 23.74 7.72 22.84Q9.64 21.94 12 21.94Q17.04 21.94 19.76 25.48Q22.48 29.02 22.48 36.46Q22.48 40.14 21.72 42.88Q20.96 45.62 19.58 47.44Q18.2 49.26 16.26 50.16Q14.32 51.06 11.96 51.06Q6.88 51.06 4.2 47.32Q1.52 43.58 1.52 36.46ZM17.36 36.46Q17.36 35.82 17.34 35.24Q17.32 34.66 17.28 34.1L7.48 43.02Q8.72 46.66 12 46.66Q14.56 46.66 15.96 44.22Q17.36 41.78 17.36 36.46ZM6.64 36.46Q6.64 37.06 6.66 37.6Q6.68 38.14 6.72 38.7L16.48 29.78Q15.28 26.34 11.96 26.34Q9.4 26.34 8.02 28.8Q6.64 31.26 6.64 36.46Z" />
      </g>
      <g id="x5" fill="#FFFFFF">
        <path d="M53.608 49.859Q55.7401 50.8778 58.4389 50.8778Q61.3672 50.8778 63.6005 49.6566Q65.8338 48.4354 67.0955 46.2965Q68.3572 44.1577 68.3572 41.4183Q68.3572 38.7599 67.2237 36.6953Q66.0902 34.6307 64.12 33.4499Q62.1499 32.2692 59.6399 32.2692Q57.9666 32.2692 56.5632 32.8629Q55.1598 33.4567 54.3906 34.3743L54.2287 34.3743L55.0249 27.0469L66.9134 27.0469L66.9134 22.8636L50.8821 22.8636L49.4382 37.1136L53.9588 37.8558Q54.6605 37.0866 55.8615 36.6143Q57.0625 36.142 58.304 36.1555Q60.5845 36.169 62.0554 37.6804Q63.5263 39.1918 63.5128 41.5398Q63.5263 43.8608 62.0891 45.3452Q60.652 46.8295 58.4389 46.8295Q56.5632 46.8295 55.2273 45.7567Q53.8913 44.6839 53.7564 42.9837L48.8984 42.9837Q48.9659 45.2777 50.2209 47.0589Q51.4759 48.8402 53.608 49.859ZM35.1875 37.424L31.0043 29.7727L25.8224 29.7727L31.9759 40.1364L25.6605 50.5L30.8423 50.5L35.1875 43.0376L39.5732 50.5L44.7145 50.5L38.3587 40.1364L44.6065 29.7727L39.4382 29.7727L35.1875 37.424Z" />
      </g>
    </g>
  </g>
</svg>