<?xml version="1.0" encoding="utf-8"?>
<svg width="33.00061px" height="32px" viewBox="0 0 33.00061 32" version="1.1" xmlns:xlink="http://www.w3.org/1999/xlink" xmlns="http://www.w3.org/2000/svg">
  <defs>
    <path d="M0.000610232 0L33.0006 0L33.0006 32L0.000610232 32L0.000610232 0Z" id="path_1" />
    <clipPath id="mask_1">
      <use xlink:href="#path_1" />
    </clipPath>
  </defs>
  <g id="Star">
    <path d="M0.000610232 0L33.0006 0L33.0006 32L0.000610232 32L0.000610232 0Z" id="Background" fill="#FFFFFF" fill-opacity="0" fill-rule="evenodd" stroke="none" />
    <path d="M25.4702 19.7122C25.0558 20.1138 24.8654 20.6946 24.9598 21.2642L26.3822 29.1362C26.5022 29.8034 26.2206 30.4786 25.6622 30.8642C25.115 31.2642 24.387 31.3122 23.7902 30.9922L16.7038 27.2962C16.4574 27.165 16.1838 27.0946 15.9038 27.0866L15.4702 27.0866C15.3198 27.109 15.1726 27.157 15.0382 27.2306L7.9502 30.9442C7.5998 31.1202 7.203 31.1826 6.8142 31.1202C5.867 30.941 5.235 30.0386 5.3902 29.0866L6.8142 21.2146C6.9086 20.6402 6.7182 20.0562 6.3038 19.6482L0.526201 14.0482C0.0430012 13.5794 -0.124999 12.8754 0.0958012 12.2402C0.310201 11.6066 0.857401 11.1442 1.5182 11.0402L9.4702 9.88663C10.075 9.82423 10.6062 9.45623 10.8782 8.91223L14.3822 1.72823C14.4654 1.56823 14.5726 1.42103 14.7022 1.29623L14.8462 1.18423C14.9214 1.10103 15.0078 1.03223 15.1038 0.976232L15.2782 0.912232L15.5502 0.800232L16.2238 0.800232C16.8254 0.862632 17.355 1.22263 17.6318 1.76023L21.1822 8.91223C21.4382 9.43543 21.9358 9.79863 22.5102 9.88663L30.4622 11.0402C31.1342 11.1362 31.6958 11.6002 31.9182 12.2402C32.1278 12.8818 31.947 13.5858 31.4542 14.0482L25.4702 19.7122L25.4702 19.7122Z" id="Shape" fill="#AA77FF" stroke="none" />
  </g>
</svg>